<?xml version="1.0" encoding="UTF-8"?>
<svg version="1.1" xmlns="http://www.w3.org/2000/svg" width="280" height="80">
<path d="M0 0 C2 2 2 2 2.125 5.625 C2.08375 6.73875 2.0425 7.8525 2 9 C6.12612615 9.44844853 6.12612615 9.44844853 8.75 6.5 C9.4925 5.675 10.235 4.85 11 4 C11.99 4.33 12.98 4.66 14 5 C14 5.99 14 6.98 14 8 C15.32 8 16.64 8 18 8 C18 9.32 18 10.64 18 12 C18.99 12.495 18.99 12.495 20 13 C19.42415568 15.38564077 18.77772405 17.66682784 18 20 C16.35 20 14.7 20 13 20 C12.76216797 21.28583984 12.76216797 21.28583984 12.51953125 22.59765625 C10.3788298 33.08827608 10.3788298 33.08827608 7.25 37.0625 C6.13625 38.5165625 6.13625 38.5165625 5 40 C5.30166236 41.98352102 5.30166236 41.98352102 6 44 C6.57944771 51.18515165 6.57944771 51.18515165 4 54.8125 C1.4144704 58.93318779 1.8647197 61.70785717 2.05078125 66.44921875 C1.98563112 69.72175981 0.96753766 71.42706614 -1 74 C-1.69822617 75.65369357 -2.37498605 77.31727014 -3 79 C-4.875 78.6875 -4.875 78.6875 -7 78 C-9.52775351 74.20836973 -9.22443035 71.19125969 -9.125 66.8125 C-9.11597656 66.06291016 -9.10695312 65.31332031 -9.09765625 64.54101562 C-9.07412578 62.69387346 -9.03825561 60.84689588 -9 59 C-9.33 59 -9.66 59 -10 59 C-10.185625 60.4540625 -10.185625 60.4540625 -10.375 61.9375 C-10.58125 62.948125 -10.7875 63.95875 -11 65 C-11.99 65.495 -11.99 65.495 -13 66 C-13.99 65.67 -14.98 65.34 -16 65 C-16.969375 65.061875 -17.93875 65.12375 -18.9375 65.1875 C-22 65 -22 65 -24.3125 63.125 C-27.29718609 59.36650641 -27.41306401 56.79154246 -27 52 C-24.78136971 49.09282927 -23.48055071 48.16018357 -20 47 C-21.51723118 43.7969564 -22.45790883 42.2647422 -25.6875 40.6875 C-29.60138556 39.87518413 -33.00916273 39.86238492 -37 40 C-37.33 41.32 -37.66 42.64 -38 44 C-40.97 44.495 -40.97 44.495 -44 45 C-46.82775303 41.80340962 -48 39.30502354 -48 35 C-45.94433157 31.55178199 -44.63388481 29.633055 -40.8828125 28.1796875 C-38.94377437 27.6897526 -36.97185371 27.33421249 -35 27 C-35.01160156 26.37351562 -35.02320313 25.74703125 -35.03515625 25.1015625 C-35.04417969 24.28429687 -35.05320312 23.46703125 -35.0625 22.625 C-35.07410156 21.81289063 -35.08570313 21.00078125 -35.09765625 20.1640625 C-35 18 -35 18 -34 16 C-29.33333333 16.77777778 -29.33333333 16.77777778 -27.125 18.25 C-24.72488287 19.35084938 -24.72488287 19.35084938 -21.25 17.625 C-20.1775 17.08875 -19.105 16.5525 -18 16 C-18.2475 15.12988281 -18.2475 15.12988281 -18.5 14.2421875 C-19.04686797 11.65310946 -19.32183129 9.63472548 -19 7 C-13.92381694 0.87834995 -7.63420357 -0.42412242 0 0 Z M-13 10 C-12.34 11.32 -11.68 12.64 -11 14 C-10.6596875 13.0409375 -10.6596875 13.0409375 -10.3125 12.0625 C-9 10 -9 10 -6.375 9.25 C-5.59125 9.1675 -4.8075 9.085 -4 9 C-4.33 8.01 -4.66 7.02 -5 6 C-8.28158484 6 -10.37881108 8.17656423 -13 10 Z M-2 10 C-1.34 10.66 -0.68 11.32 0 12 C0 11.34 0 10.68 0 10 C-0.66 10 -1.32 10 -2 10 Z M0 14 C-0.77242269 15.83700789 -0.77242269 15.83700789 -1 18 C0.35444301 19.77190909 0.35444301 19.77190909 2 21 C2 20.01 2 19.02 2 18 C2 16.68 2 15.36 2 14 C1.34 14 0.68 14 0 14 Z " fill="#F5D73E" transform="translate(95,0)"/>
<path d="M0 0 C1.32 0.33 2.64 0.66 4 1 C4.495 6.445 4.495 6.445 5 12 C5.680625 11.484375 6.36125 10.96875 7.0625 10.4375 C10.80118832 8.60792912 13.00443413 9.13821128 17 10 C17 7.03 17 4.06 17 1 C18.32 0.67 19.64 0.34 21 0 C22.81115956 1.81115956 22.38199448 4.61278227 22.5625 7.0625 C22.64628906 8.16722656 22.73007813 9.27195312 22.81640625 10.41015625 C22.87699219 11.26480469 22.93757813 12.11945312 23 13 C23.41507812 12.52304687 23.83015625 12.04609375 24.2578125 11.5546875 C27.04959395 9.06336683 30.38835179 8.85244239 34 9 C37 10.4375 37 10.4375 39 12 C39.66 11.01 40.32 10.02 41 9 C44.12131579 10.05377755 44.91884873 10.84581258 46.484375 13.8203125 C47.65625 16.88020833 48.828125 19.94010417 50 23 C51.98 18.71 53.96 14.42 56 10 C57.32 10 58.64 10 60 10 C59.45964356 16.56670448 57.19522531 22.13284801 54.6875 28.1875 C54.29626953 29.17169922 53.90503906 30.15589844 53.50195312 31.16992188 C53.11330078 32.11802734 52.72464844 33.06613281 52.32421875 34.04296875 C51.97447998 34.89914795 51.62474121 35.75532715 51.2644043 36.63745117 C49.38596037 40.14733761 47.14011962 42.39993704 43.625 44.25 C40.64617677 45.10109235 38.08306095 45.14339818 35 45 C34.505 43.02 34.505 43.02 34 41 C34.68707031 40.79246094 35.37414062 40.58492187 36.08203125 40.37109375 C40.57651957 38.83435168 43.39494934 37.74467774 46.4375 34 C48.21499755 28.51137581 44.42036502 22.80131041 42 18 C41.5359375 19.2065625 41.5359375 19.2065625 41.0625 20.4375 C40 23 40 23 39 24 C36.98035801 24.07244053 34.95832876 24.08377188 32.9375 24.0625 C31.83277344 24.05347656 30.72804688 24.04445313 29.58984375 24.03515625 C28.73519531 24.02355469 27.88054687 24.01195313 27 24 C27.99 25.98 27.99 25.98 29 28 C32.3 28 35.6 28 39 28 C39.495 29.98 39.495 29.98 40 32 C35.44156632 34.49978621 30.92069598 34.37300319 26 33 C24.2265625 31.44921875 24.2265625 31.44921875 23 30 C22.34 31.32 21.68 32.64 21 34 C19.27119018 34.05449838 17.54187288 34.09301688 15.8125 34.125 C14.84957031 34.14820313 13.88664062 34.17140625 12.89453125 34.1953125 C9.87187222 33.9913544 7.73230015 33.26874632 5 32 C4.01 32.99 4.01 32.99 3 34 C0.57421875 34.265625 0.57421875 34.265625 -2.3125 34.25 C-3.25738281 34.25515625 -4.20226562 34.2603125 -5.17578125 34.265625 C-8.21839295 33.97945958 -10.32075433 33.47404865 -13 32 C-14.51648525 29.42249264 -15.11481881 26.88848598 -16 24 C-20.29 24 -24.58 24 -29 24 C-28.34 25.32 -27.68 26.64 -27 28 C-23.7 28 -20.4 28 -17 28 C-16.505 29.98 -16.505 29.98 -16 32 C-19.65612044 34.33991708 -22.73207376 34.37437949 -27 34 C-29.31279611 32.84360194 -31.17409828 31.82590172 -33 30 C-33.99 31.32 -34.98 32.64 -36 34 C-37.485 33.505 -37.485 33.505 -39 33 C-39.33 27.39 -39.66 21.78 -40 16 C-43 14.66666667 -43 14.66666667 -46 16 C-46.33 21.61 -46.66 27.22 -47 33 C-48.32 33 -49.64 33 -51 33 C-51.06058594 31.86820313 -51.12117188 30.73640625 -51.18359375 29.5703125 C-51.26799917 28.08852855 -51.35264717 26.6067584 -51.4375 25.125 C-51.47681641 24.37863281 -51.51613281 23.63226563 -51.55664062 22.86328125 C-51.71573624 18.80013136 -51.71573624 18.80013136 -53 15 C-54.65 15.33 -56.3 15.66 -58 16 C-58.33 21.61 -58.66 27.22 -59 33 C-60.32 33 -61.64 33 -63 33 C-64 32 -64 32 -64.11352539 29.95874023 C-64.10828857 29.08419189 -64.10305176 28.20964355 -64.09765625 27.30859375 C-64.09443359 26.36435547 -64.09121094 25.42011719 -64.08789062 24.44726562 C-64.07951172 23.45404297 -64.07113281 22.46082031 -64.0625 21.4375 C-64.05798828 20.44041016 -64.05347656 19.44332031 -64.04882812 18.41601562 C-64.03700007 15.94395151 -64.02051849 13.47200482 -64 11 C-59.30639354 8.35527297 -54.59969863 8.42933445 -49.4375 9.5625 C-46.81604011 10.17056608 -46.81604011 10.17056608 -43.4375 9.4375 C-40 9 -40 9 -37.6875 9.625 C-35.45249475 11.44611539 -34.85617314 13.28878505 -34 16 C-33.5875 15.21625 -33.175 14.4325 -32.75 13.625 C-30.86805543 10.80208315 -30.23509736 9.87435064 -27 9 C-24.18371296 8.90128478 -21.6845539 9.11981839 -19 10 C-16.5 12.5625 -16.5 12.5625 -15 15 C-14.505 14.195625 -14.01 13.39125 -13.5 12.5625 C-10.01169486 8.98698723 -7.92092693 9.15873958 -3 9 C-2.34 9.33 -1.68 9.66 -1 10 C-1.01160156 9.36191406 -1.02320313 8.72382813 -1.03515625 8.06640625 C-1.04417969 7.24011719 -1.05320313 6.41382813 -1.0625 5.5625 C-1.07410156 4.73878906 -1.08570313 3.91507813 -1.09765625 3.06640625 C-1 1 -1 1 0 0 Z M-27.8125 15.3125 C-29.19183114 16.92869435 -29.19183114 16.92869435 -29 19 C-26.03 19 -23.06 19 -20 19 C-20.33 17.68 -20.66 16.36 -21 15 C-24.58563992 13.80757578 -24.58563992 13.80757578 -27.8125 15.3125 Z M27 16 C27 16.99 27 17.98 27 19 C29.97 19 32.94 19 36 19 C35.67 17.68 35.34 16.36 35 15 C30.82189931 13.81068813 30.82189931 13.81068813 27 16 Z M40 14 C41 16 41 16 41 16 Z " fill="#15658E" transform="translate(169,23)"/>
<path d="M0 0 C2 2 2 2 2.125 5.625 C2.08375 6.73875 2.0425 7.8525 2 9 C6.12612615 9.44844853 6.12612615 9.44844853 8.75 6.5 C9.4925 5.675 10.235 4.85 11 4 C11.99 4.33 12.98 4.66 14 5 C14 5.99 14 6.98 14 8 C15.32 8 16.64 8 18 8 C18 9.32 18 10.64 18 12 C18.99 12.495 18.99 12.495 20 13 C19.42415568 15.38564077 18.77772405 17.66682784 18 20 C16.35 20 14.7 20 13 20 C12.81824219 20.90363281 12.63648438 21.80726562 12.44921875 22.73828125 C12.07216797 24.50751953 12.07216797 24.50751953 11.6875 26.3125 C11.44386719 27.48425781 11.20023438 28.65601563 10.94921875 29.86328125 C10.03606345 32.88082736 9.44125126 34.10580785 7 36 C3.77734375 30.7265625 3.77734375 30.7265625 3 29 C3.33 28.34 3.66 27.68 4 27 C4.66 27.66 5.32 28.32 6 29 C8.06874034 29.6425235 8.06874034 29.6425235 10 30 C10 28.68 10 27.36 10 26 C7.36 26 4.72 26 2 26 C2 25.34 2 24.68 2 24 C-0.64 24 -3.28 24 -6 24 C-6.495 23.01 -6.495 23.01 -7 22 C-8.65 22 -10.3 22 -12 22 C-11.649375 22.7425 -11.29875 23.485 -10.9375 24.25 C-9.95490707 27.1322726 -9.9673198 28.21176345 -11 31 C-14.01031744 31.93423645 -14.86650268 32.04449911 -18 31 C-18 30.01 -18 29.02 -18 28 C-21.72614153 29.11854586 -21.72614153 29.11854586 -24 32 C-26.0625 33.125 -26.0625 33.125 -28 34 C-28 34.99 -28 35.98 -28 37 C-26.02 37.66 -24.04 38.32 -22 39 C-22.33 39.99 -22.66 40.98 -23 42 C-23.825 41.67 -24.65 41.34 -25.5 41 C-29.5873983 39.83217191 -32.76923344 39.8541115 -37 40 C-37.33 41.32 -37.66 42.64 -38 44 C-40.97 44.495 -40.97 44.495 -44 45 C-46.82775303 41.80340962 -48 39.30502354 -48 35 C-45.94433157 31.55178199 -44.63388481 29.633055 -40.8828125 28.1796875 C-38.94377437 27.6897526 -36.97185371 27.33421249 -35 27 C-35.01160156 26.37351562 -35.02320313 25.74703125 -35.03515625 25.1015625 C-35.04417969 24.28429687 -35.05320312 23.46703125 -35.0625 22.625 C-35.07410156 21.81289063 -35.08570313 21.00078125 -35.09765625 20.1640625 C-35 18 -35 18 -34 16 C-29.33333333 16.77777778 -29.33333333 16.77777778 -27.125 18.25 C-24.72488287 19.35084938 -24.72488287 19.35084938 -21.25 17.625 C-20.1775 17.08875 -19.105 16.5525 -18 16 C-18.2475 15.12988281 -18.2475 15.12988281 -18.5 14.2421875 C-19.04686797 11.65310946 -19.32183129 9.63472548 -19 7 C-13.92381694 0.87834995 -7.63420357 -0.42412242 0 0 Z M-13 10 C-12.34 11.32 -11.68 12.64 -11 14 C-10.6596875 13.0409375 -10.6596875 13.0409375 -10.3125 12.0625 C-9 10 -9 10 -6.375 9.25 C-5.59125 9.1675 -4.8075 9.085 -4 9 C-4.33 8.01 -4.66 7.02 -5 6 C-8.28158484 6 -10.37881108 8.17656423 -13 10 Z M-2 10 C-1.34 10.66 -0.68 11.32 0 12 C0 11.34 0 10.68 0 10 C-0.66 10 -1.32 10 -2 10 Z M0 14 C-0.77242269 15.83700789 -0.77242269 15.83700789 -1 18 C0.35444301 19.77190909 0.35444301 19.77190909 2 21 C2 20.01 2 19.02 2 18 C2 16.68 2 15.36 2 14 C1.34 14 0.68 14 0 14 Z " fill="#EAD053" transform="translate(95,0)"/>
<path d="M0 0 C1.32 0.33 2.64 0.66 4 1 C4.33 4.96 4.66 8.92 5 13 C5.99 12.01 6.98 11.02 8 10 C14.85605338 8.45185891 14.85605338 8.45185891 19 10.4375 C19.66 10.953125 20.32 11.46875 21 12 C21.66 11.01 22.32 10.02 23 9 C26.12131579 10.05377755 26.91884873 10.84581258 28.484375 13.8203125 C29.65625 16.88020833 30.828125 19.94010417 32 23 C33.98 18.71 35.96 14.42 38 10 C39.32 10 40.64 10 42 10 C41.45964356 16.56670448 39.19522531 22.13284801 36.6875 28.1875 C36.29626953 29.17169922 35.90503906 30.15589844 35.50195312 31.16992188 C35.11330078 32.11802734 34.72464844 33.06613281 34.32421875 34.04296875 C33.97447998 34.89914795 33.62474121 35.75532715 33.2644043 36.63745117 C31.38596037 40.14733761 29.14011962 42.39993704 25.625 44.25 C22.64617677 45.10109235 20.08306095 45.14339818 17 45 C16.67 43.68 16.34 42.36 16 41 C16.68707031 40.79246094 17.37414062 40.58492187 18.08203125 40.37109375 C22.57651957 38.83435168 25.39494934 37.74467774 28.4375 34 C30.21499755 28.51137581 26.42036502 22.80131041 24 18 C23.690625 18.804375 23.38125 19.60875 23.0625 20.4375 C22 23 22 23 21 24 C18.98035801 24.07244053 16.95832876 24.08377188 14.9375 24.0625 C13.83277344 24.05347656 12.72804687 24.04445313 11.58984375 24.03515625 C10.73519531 24.02355469 9.88054687 24.01195313 9 24 C9.66 25.32 10.32 26.64 11 28 C14.3 28 17.6 28 21 28 C21.495 29.98 21.495 29.98 22 32 C17.44156632 34.49978621 12.92069598 34.37300319 8 33 C6.2265625 31.44921875 6.2265625 31.44921875 5 30 C4.34 31.32 3.68 32.64 3 34 C1.68 33.67 0.36 33.34 -1 33 C0.98 32.505 0.98 32.505 3 32 C3 22.1 3 12.2 3 2 C2.01 2 1.02 2 0 2 C0.33 4.97 0.66 7.94 1 11 C-5.435 11.495 -5.435 11.495 -12 12 C-11.67 11.34 -11.34 10.68 -11 10 C-3.58823529 8.70588235 -3.58823529 8.70588235 -1 10 C-1.01160156 9.36191406 -1.02320313 8.72382813 -1.03515625 8.06640625 C-1.04417969 7.24011719 -1.05320313 6.41382813 -1.0625 5.5625 C-1.07410156 4.73878906 -1.08570313 3.91507813 -1.09765625 3.06640625 C-1 1 -1 1 0 0 Z M9 16 C9 16.99 9 17.98 9 19 C11.97 19 14.94 19 18 19 C17.67 17.68 17.34 16.36 17 15 C12.82189931 13.81068813 12.82189931 13.81068813 9 16 Z M22 14 C23 16 23 16 23 16 Z " fill="#1F4D65" transform="translate(187,23)"/>
<path d="M0 0 C1.32 0.33 2.64 0.66 4 1 C4.33 4.63 4.66 8.26 5 12 C5.99 11.67 6.98 11.34 8 11 C9.89470816 10.9314505 11.7916834 10.91519628 13.6875 10.9375 C14.68136719 10.94652344 15.67523438 10.95554687 16.69921875 10.96484375 C17.83810547 10.98224609 17.83810547 10.98224609 19 11 C18.67 10.34 18.34 9.68 18 9 C17.95977609 6.6670134 17.95679753 4.33293334 18 2 C18.99 2 19.98 2 21 2 C21 11.9 21 21.8 21 32 C15.35655995 34.25737602 15.35655995 34.25737602 11.3125 33.6875 C10.54550781 33.58824219 9.77851563 33.48898438 8.98828125 33.38671875 C7 33 7 33 5 32 C5 31.01 5 30.02 5 29 C3.68 28.67 2.36 28.34 1 28 C1 27.34 1 26.68 1 26 C0.34 26 -0.32 26 -1 26 C-1 24.68 -1 23.36 -1 22 C-0.01 21.67 0.98 21.34 2 21 C-0.31 20.01 -2.62 19.02 -5 18 C-5 20.31 -5 22.62 -5 25 C-6.32 25 -7.64 25 -9 25 C-9.22127098 22.70954632 -9.4266504 20.41755236 -9.625 18.125 C-9.74101562 16.84882812 -9.85703125 15.57265625 -9.9765625 14.2578125 C-9.98816406 12.64519531 -9.98816406 12.64519531 -10 11 C-9.34 10.34 -8.68 9.68 -8 9 C-4.375 9.375 -4.375 9.375 -1 10 C-1.01160156 9.36191406 -1.02320313 8.72382813 -1.03515625 8.06640625 C-1.04417969 7.24011719 -1.05320313 6.41382813 -1.0625 5.5625 C-1.07410156 4.73878906 -1.08570313 3.91507813 -1.09765625 3.06640625 C-1 1 -1 1 0 0 Z " fill="#1379A9" transform="translate(169,23)"/>
<path d="M0 0 C2 2 2 2 2.125 5.625 C2.08375 6.73875 2.0425 7.8525 2 9 C6.12612615 9.44844853 6.12612615 9.44844853 8.75 6.5 C9.4925 5.675 10.235 4.85 11 4 C11.99 4.33 12.98 4.66 14 5 C14 5.99 14 6.98 14 8 C15.32 8 16.64 8 18 8 C18 9.32 18 10.64 18 12 C18.66 12.33 19.32 12.66 20 13 C19.42415568 15.38564077 18.77772405 17.66682784 18 20 C16.35 20 14.7 20 13 20 C12.81824219 20.90363281 12.63648437 21.80726562 12.44921875 22.73828125 C12.19785156 23.91777344 11.94648437 25.09726562 11.6875 26.3125 C11.44386719 27.48425781 11.20023438 28.65601563 10.94921875 29.86328125 C10.03606345 32.88082736 9.44125126 34.10580785 7 36 C3.77734375 30.7265625 3.77734375 30.7265625 3 29 C3.33 28.34 3.66 27.68 4 27 C4.66 27.66 5.32 28.32 6 29 C8.06874034 29.6425235 8.06874034 29.6425235 10 30 C10 28.68 10 27.36 10 26 C7.36 26 4.72 26 2 26 C1.05871194 21.64654271 0.8101032 18.31337592 2 14 C1.34 14 0.68 14 0 14 C-0.33 14.66 -0.66 15.32 -1 16 C-0.67 14.02 -0.34 12.04 0 10 C-0.99 10.33 -1.98 10.66 -3 11 C-5.33299825 11.03954234 -7.66708189 11.04401732 -10 11 C-9.67 10.34 -9.34 9.68 -9 9 C-7.35 9 -5.7 9 -4 9 C-4.33 8.34 -4.66 7.68 -5 7 C-6.98 7.66 -8.96 8.32 -11 9 C-11.33 10.65 -11.66 12.3 -12 14 C-13.32 14 -14.64 14 -16 14 C-16 14.99 -16 15.98 -16 17 C-18 16 -18 16 -18.6953125 14.14453125 C-19.16893397 11.57405839 -19.39852973 9.59258586 -19 7 C-13.89631728 0.88818242 -7.65455849 -0.42525325 0 0 Z " fill="#FAD53E" transform="translate(95,0)"/>
<path d="M0 0 C2.5 2.5625 2.5 2.5625 4 5 C5.32 3.35 6.64 1.7 8 0 C8.66 0.33 9.32 0.66 10 1 C10 5.62 10 10.24 10 15 C11.32 15 12.64 15 14 15 C14 12.69 14 10.38 14 8 C16.875 8.3125 16.875 8.3125 20 9 C20.66 9.99 21.32 10.98 22 12 C20.68 12 19.36 12 18 12 C18 13.32 18 14.64 18 16 C18.66 16 19.32 16 20 16 C20 16.66 20 17.32 20 18 C21.32 18.66 22.64 19.32 24 20 C23.34 21.32 22.68 22.64 22 24 C20.27119018 24.05449838 18.54187288 24.09301688 16.8125 24.125 C15.84957031 24.14820312 14.88664062 24.17140625 13.89453125 24.1953125 C10.83821216 23.98908314 8.73216149 23.3612706 6 22 C3.65856324 18.76658732 4 17.27606852 4 13 C-0.95 13 -5.9 13 -11 13 C-11 14.32 -11 15.64 -11 17 C-11.66 17 -12.32 17 -13 17 C-14.35281371 14.29437257 -14.20609362 12.08106345 -14.25 9.0625 C-14.27578125 8.00160156 -14.3015625 6.94070312 -14.328125 5.84765625 C-14 3 -14 3 -12.671875 1.18359375 C-8.71995324 -1.61414525 -4.47043529 -1.35822078 0 0 Z M-8.8125 5.3125 C-10.19183114 6.92869435 -10.19183114 6.92869435 -10 9 C-7.03 9 -4.06 9 -1 9 C-1.33 7.68 -1.66 6.36 -2 5 C-5.58563992 3.80757578 -5.58563992 3.80757578 -8.8125 5.3125 Z " fill="#1E749D" transform="translate(150,33)"/>
<path d="M0 0 C1.98 1.32 3.96 2.64 6 4 C5.814375 4.78375 5.62875 5.5675 5.4375 6.375 C4.74037734 8.97089775 4.74037734 8.97089775 6 11 C6.5967366 18.16083916 6.5967366 18.16083916 4 21.8125 C1.4144704 25.93318779 1.8647197 28.70785717 2.05078125 33.44921875 C1.98563112 36.72175981 0.96753766 38.42706614 -1 41 C-1.69822617 42.65369357 -2.37498605 44.31727014 -3 46 C-4.875 45.6875 -4.875 45.6875 -7 45 C-9.51523745 41.22714383 -9.18947417 38.28925116 -9.0625 33.9375 C-8.70520276 28.81866541 -8.70520276 28.81866541 -10 24 C-7.69 24 -5.38 24 -3 24 C-2.67 23.01 -2.34 22.02 -2 21 C-1.34 21 -0.68 21 0 21 C0 14.07 0 7.14 0 0 Z " fill="#BC9530" transform="translate(95,33)"/>
<path d="M0 0 C0.99 0.33 1.98 0.66 3 1 C2.45964356 7.56670448 0.19522531 13.13284801 -2.3125 19.1875 C-2.70373047 20.17169922 -3.09496094 21.15589844 -3.49804688 22.16992188 C-3.88669922 23.11802734 -4.27535156 24.06613281 -4.67578125 25.04296875 C-5.02552002 25.89914795 -5.37525879 26.75532715 -5.7355957 27.63745117 C-7.61403963 31.14733761 -9.85988038 33.39993704 -13.375 35.25 C-16.35382323 36.10109235 -18.91693905 36.14339818 -22 36 C-22.33 34.68 -22.66 33.36 -23 32 C-22.31292969 31.79246094 -21.62585938 31.58492187 -20.91796875 31.37109375 C-16.31370766 29.7968185 -13.61504426 28.8713127 -10.75 24.8125 C-9.33477707 17.61845012 -11.74114612 12.36957804 -15 6 C-15 4.68 -15 3.36 -15 2 C-14.01 2 -13.02 2 -12 2 C-10.35 5.96 -8.7 9.92 -7 14 C-6.57847656 13.07316406 -6.15695313 12.14632812 -5.72265625 11.19140625 C-5.17480469 9.99386719 -4.62695312 8.79632813 -4.0625 7.5625 C-3.24458984 5.77005859 -3.24458984 5.77005859 -2.41015625 3.94140625 C-1 1 -1 1 0 0 Z " fill="#1B5E7E" transform="translate(226,32)"/>
<path d="M0 0 C0 0.66 0 1.32 0 2 C2.64 2 5.28 2 8 2 C7.52354792 6.28806873 6.34097516 8.26647487 3 11 C2.34 11 1.68 11 1 11 C0.67 10.34 0.34 9.68 0 9 C-0.350625 9.639375 -0.70125 10.27875 -1.0625 10.9375 C-3 13 -3 13 -6.3125 14 C-10.77841794 14 -12.57501396 12.75669608 -16 10 C-13.97240395 13.07717841 -13.97240395 13.07717841 -11 15 C-6.8756289 14.84446455 -2.99590995 14.00057075 1 13 C0.6875 14.875 0.6875 14.875 0 17 C-3.65653827 19.43769218 -5.69000101 19.23944439 -10 19 C-10.33 18.67 -10.66 18.34 -11 18 C-12.84599688 17.60545777 -14.70225822 17.25823134 -16.5625 16.9375 C-18.08037109 16.67259766 -18.08037109 16.67259766 -19.62890625 16.40234375 C-20.41136719 16.26957031 -21.19382812 16.13679688 -22 16 C-22.625 14.125 -22.625 14.125 -23 12 C-22.34 11.34 -21.68 10.68 -21 10 C-20.01 10 -19.02 10 -18 10 C-17.34 8.68 -16.68 7.36 -16 6 C-14.68 6 -13.36 6 -12 6 C-12 6.99 -12 7.98 -12 9 C-10.02 9 -8.04 9 -6 9 C-4.89155081 5.67465243 -5.15545644 3.37817425 -6 0 C-3.50907189 -1.24546405 -2.58919267 -0.7767578 0 0 Z " fill="#E4DEAF" transform="translate(89,22)"/>
<path d="M0 0 C2.4375 0.375 2.4375 0.375 5 1 C5.33 1.66 5.66 2.32 6 3 C4.68 3 3.36 3 2 3 C1.67 5.31 1.34 7.62 1 10 C3.97 10.495 3.97 10.495 7 11 C5.68 12.32 4.36 13.64 3 15 C3 14.34 3 13.68 3 13 C2.01 13 1.02 13 0 13 C-0.66 15.64 -1.32 18.28 -2 21 C-1.34 21.33 -0.68 21.66 0 22 C0.33 20.68 0.66 19.36 1 18 C1.66 18.99 2.32 19.98 3 21 C5.18505129 21.79437923 5.18505129 21.79437923 7.625 22.1875 C8.85089844 22.42533203 8.85089844 22.42533203 10.1015625 22.66796875 C11.04128906 22.83232422 11.04128906 22.83232422 12 23 C11.67 23.99 11.34 24.98 11 26 C10.175 25.67 9.35 25.34 8.5 25 C4.4126017 23.83217191 1.23076656 23.8541115 -3 24 C-3.33 25.32 -3.66 26.64 -4 28 C-5.98 28.33 -7.96 28.66 -10 29 C-12.82775303 25.80340962 -14 23.30502354 -14 19 C-11.94433157 15.55178199 -10.63388481 13.633055 -6.8828125 12.1796875 C-4.94377437 11.6897526 -2.97185371 11.33421249 -1 11 C-1.01160156 10.37351562 -1.02320313 9.74703125 -1.03515625 9.1015625 C-1.04417969 8.28429688 -1.05320312 7.46703125 -1.0625 6.625 C-1.07410156 5.81289063 -1.08570313 5.00078125 -1.09765625 4.1640625 C-1 2 -1 2 0 0 Z " fill="#D7BA3D" transform="translate(61,16)"/>
<path d="M0 0 C0.144375 1.093125 0.28875 2.18625 0.4375 3.3125 C0.88288104 6.93122987 0.88288104 6.93122987 2 10 C0.02 10 -1.96 10 -4 10 C-4 9.34 -4 8.68 -4 8 C-7.04386724 7.91773332 -9.07175348 8.02391783 -12 9 C-12 8.01 -12 7.02 -12 6 C-14.31 6.33 -16.62 6.66 -19 7 C-19 8.32 -19 9.64 -19 11 C-19.99 11.33 -20.98 11.66 -22 12 C-22.73323796 14.01508358 -22.73323796 14.01508358 -23 16 C-23.66 16 -24.32 16 -25 16 C-25 16.66 -25 17.32 -25 18 C-25.66 17.67 -26.32 17.34 -27 17 C-28.9959722 16.32136945 -30.99568551 15.65358081 -33 15 C-32.67 12.69 -32.34 10.38 -32 8 C-29 7 -29 7 -26.5625 7.5625 C-23.49218255 8.08670054 -22.67651526 7.42189873 -20 6 C-17.25 5.875 -17.25 5.875 -15 6 C-15 5.01 -15 4.02 -15 3 C-13.35 3 -11.7 3 -10 3 C-10 2.01 -10 1.02 -10 0 C-6.30581799 -1.231394 -3.7943739 -0.64432764 0 0 Z " fill="#D1B24E" transform="translate(94,11)"/>
<path d="M0 0 C2.64 0 5.28 0 8 0 C8 1.32 8 2.64 8 4 C5.525 3.505 5.525 3.505 3 3 C3.33 3.5775 3.66 4.155 4 4.75 C5 7 5 7 5 11 C1.64404172 10.40072174 -0.37801226 9.15377564 -3 7 C-3.52992692 8.45505358 -4.0486789 9.91418127 -4.5625 11.375 C-4.85253906 12.18710937 -5.14257812 12.99921875 -5.44140625 13.8359375 C-6.25973028 16.02767749 -6.25973028 16.02767749 -5 18 C-6.87471188 18.16987681 -8.74978695 18.33574776 -10.625 18.5 C-11.66914062 18.5928125 -12.71328125 18.685625 -13.7890625 18.78125 C-16.87879033 18.99174241 -19.90475315 19.10892364 -23 19 C-24 18 -24 18 -24.0625 15.4375 C-24.041875 14.633125 -24.02125 13.82875 -24 13 C-22.33388095 12.957279 -20.66617115 12.95936168 -19 13 C-18.67 13.33 -18.34 13.66 -18 14 C-12.67326964 14.33856828 -12.67326964 14.33856828 -8 12 C-8 11.34 -8 10.68 -8 10 C-8.73605469 10.19078125 -9.47210938 10.3815625 -10.23046875 10.578125 C-18.2648158 12.40363054 -18.2648158 12.40363054 -22.1875 10.25 C-24 8 -24 8 -24 6 C-23.195625 6.4640625 -23.195625 6.4640625 -22.375 6.9375 C-18.81655104 8.52943769 -15.59356436 9.54636492 -11.8125 8.25 C-9.97795206 6.98479452 -8.49727877 5.64700665 -7 4 C-7 4.99 -7 5.98 -7 7 C-6.030625 6.21625 -5.06125 5.4325 -4.0625 4.625 C-3.51722656 4.18414063 -2.97195312 3.74328125 -2.41015625 3.2890625 C-0.86733563 2.0333609 -0.86733563 2.0333609 0 0 Z " fill="#E3C44B" transform="translate(97,26)"/>
<path d="M0 0 C2 2 2 2 2.125 5.625 C2.08375 6.73875 2.0425 7.8525 2 9 C2.66 9.33 3.32 9.66 4 10 C3.01 10 2.02 10 1 10 C1.33 11.32 1.66 12.64 2 14 C1.34 14 0.68 14 0 14 C-0.33 14.66 -0.66 15.32 -1 16 C-0.67 14.02 -0.34 12.04 0 10 C-0.99 10.33 -1.98 10.66 -3 11 C-5.33299825 11.03954234 -7.66708189 11.04401732 -10 11 C-9.67 10.34 -9.34 9.68 -9 9 C-7.35 9 -5.7 9 -4 9 C-4.33 8.34 -4.66 7.68 -5 7 C-6.98 7.66 -8.96 8.32 -11 9 C-11.33 10.65 -11.66 12.3 -12 14 C-13.32 14 -14.64 14 -16 14 C-16 14.99 -16 15.98 -16 17 C-18 16 -18 16 -18.6953125 14.14453125 C-19.16893397 11.57405839 -19.39852973 9.59258586 -19 7 C-13.89631728 0.88818242 -7.65455849 -0.42525325 0 0 Z " fill="#3D2E1C" transform="translate(95,0)"/>
<path d="M0 0 C0.66 0.33 1.32 0.66 2 1 C2 1.66 2 2.32 2 3 C2.99 3.33 3.98 3.66 5 4 C4.01 4.33 3.02 4.66 2 5 C1.67 6.65 1.34 8.3 1 10 C-0.32 8.68 -1.64 7.36 -3 6 C-3.144375 6.7425 -3.28875 7.485 -3.4375 8.25 C-3.90187492 10.52027739 -4.41863569 12.75759479 -5 15 C-4.071875 14.814375 -3.14375 14.62875 -2.1875 14.4375 C1 14 1 14 4 15 C3.67 13.35 3.34 11.7 3 10 C3.99 10 4.98 10 6 10 C6.33 11.65 6.66 13.3 7 15 C7.33 13.68 7.66 12.36 8 11 C8.66 11.33 9.32 11.66 10 12 C10.36923077 17.53846154 10.36923077 17.53846154 8.5 19.875 C8.005 20.24625 7.51 20.6175 7 21 C6.01 20.67 5.02 20.34 4 20 C3.030625 20.061875 2.06125 20.12375 1.0625 20.1875 C-2 20 -2 20 -4.3125 18.125 C-7.29718609 14.36650641 -7.41306401 11.79154246 -7 7 C-4.78136971 4.09282927 -3.48055071 3.16018357 0 2 C0 1.34 0 0.68 0 0 Z " fill="#775C27" transform="translate(75,45)"/>
<path d="M0 0 C6.33240732 0.31662037 12.54184914 3.54184914 17 8 C17 9.32 17 10.64 17 12 C12.8015641 12.34986966 11.22530013 11.60104849 8 9 C5.85266073 8.29485154 5.85266073 8.29485154 4 8 C4 10.31 4 12.62 4 15 C2.68 15 1.36 15 0 15 C-0.19390729 12.68802845 -0.37996367 10.3753971 -0.5625 8.0625 C-0.71912109 6.13083984 -0.71912109 6.13083984 -0.87890625 4.16015625 C-0.91886719 3.11730469 -0.95882812 2.07445312 -1 1 C-0.67 0.67 -0.34 0.34 0 0 Z " fill="#F48439" transform="translate(160,33)"/>
<path d="M0 0 C2.43868168 -0.1079859 4.87259133 -0.18726589 7.3125 -0.25 C8.00279297 -0.28351562 8.69308594 -0.31703125 9.40429688 -0.3515625 C12.68105657 -0.41488153 14.49985898 -0.44728854 16.99609375 1.78515625 C18.48735011 5.07520432 17.78032313 7.55357283 17 11 C16 12 16 12 13.6875 12.3125 C10.2027222 11.90729328 9.14456865 10.70056793 7 8 C7 7.34 7 6.68 7 6 C6.21625 5.7525 5.4325 5.505 4.625 5.25 C1.6083499 3.81349995 1.28434435 2.95279169 0 0 Z " fill="#F3EAA8" transform="translate(75,44)"/>
<path d="M0 0 C0.99 0.495 0.99 0.495 2 1 C2.4140625 3.28515625 2.4140625 3.28515625 2.625 6.0625 C2.69976562 6.98160156 2.77453125 7.90070312 2.8515625 8.84765625 C2.92503906 9.91306641 2.92503906 9.91306641 3 11 C3.66 11 4.32 11 5 11 C5 9.68 5 8.36 5 7 C9.62 7 14.24 7 19 7 C19 7.33 19 7.66 19 8 C14.71 8 10.42 8 6 8 C6.66 9.32 7.32 10.64 8 12 C11.3 12 14.6 12 18 12 C18.33 13.32 18.66 14.64 19 16 C15.34387956 18.33991708 12.26792624 18.37437949 8 18 C5.68720389 16.84360194 3.82590172 15.82590172 2 14 C1.34 14.66 0.68 15.32 0 16 C0 10.72 0 5.44 0 0 Z " fill="#116791" transform="translate(134,39)"/>
<path d="M0 0 C0.99 0 1.98 0 3 0 C4.65 3.96 6.3 7.92 8 12 C8.99 10.35 9.98 8.7 11 7 C11.99 6.67 12.98 6.34 14 6 C13.34 8.97 12.68 11.94 12 15 C11.34 15 10.68 15 10 15 C10 16.32 10 17.64 10 19 C9.01 19 8.02 19 7 19 C7.33 20.98 7.66 22.96 8 25 C7.34 25 6.68 25 6 25 C5.72736328 23.48019531 5.72736328 23.48019531 5.44921875 21.9296875 C5.19578418 20.57803647 4.94185135 19.22647881 4.6875 17.875 C4.56955078 17.20984375 4.45160156 16.5446875 4.33007812 15.859375 C3.48774434 11.45332136 2.01101005 7.97695544 0 4 C0 2.68 0 1.36 0 0 Z " fill="#1D6283" transform="translate(211,34)"/>
<path d="M0 0 C2.12199561 3.44824286 2 6.02242497 2 10 C2.94978897 12.15028304 2.94978897 12.15028304 4 14 C2.54119891 13.85892253 1.08296449 13.71197585 -0.375 13.5625 C-1.59316406 13.44068359 -1.59316406 13.44068359 -2.8359375 13.31640625 C-5 13 -5 13 -7 12 C-7 11.01 -7 10.02 -7 9 C-8.32 8.67 -9.64 8.34 -11 8 C-11 7.34 -11 6.68 -11 6 C-11.66 6 -12.32 6 -13 6 C-13 4.68 -13 3.36 -13 2 C-8.61110675 2.66498383 -5.0188515 4.18757677 -1 6 C-1.020625 5.195625 -1.04125 4.39125 -1.0625 3.5625 C-1 1 -1 1 0 0 Z " fill="#CBD6DF" transform="translate(181,43)"/>
<path d="M0 0 C0.3125 2.3125 0.3125 2.3125 0 5 C-1.64821244 6.03013277 -3.31503702 7.03114628 -5 8 C-5 9.32 -5 10.64 -5 12 C-6.32 12 -7.64 12 -9 12 C-9 12.99 -9 13.98 -9 15 C-9.66 14.67 -10.32 14.34 -11 14 C-11.99435002 10.99209119 -12.30494161 8.15106327 -12 5 C-8.35939351 0.64903127 -5.63469328 -0.67079682 0 0 Z " fill="#88692B" transform="translate(88,2)"/>
<path d="M0 0 C0.99 0.33 1.98 0.66 3 1 C2.01 1.495 2.01 1.495 1 2 C1.33 2.7425 1.66 3.485 2 4.25 C3 7 3 7 3 11 C3.66 11.33 4.32 11.66 5 12 C4.67 13.32 4.34 14.64 4 16 C3.01 13.69 2.02 11.38 1 9 C0.690625 9.804375 0.38125 10.60875 0.0625 11.4375 C-1 14 -1 14 -2 15 C-4.01964199 15.07244053 -6.04167124 15.08377188 -8.0625 15.0625 C-9.71958984 15.04896484 -9.71958984 15.04896484 -11.41015625 15.03515625 C-12.26480469 15.02355469 -13.11945313 15.01195312 -14 15 C-13.34 16.65 -12.68 18.3 -12 20 C-12.99 19.67 -13.98 19.34 -15 19 C-15 17.02 -15 15.04 -15 13 C-10.71 13 -6.42 13 -2 13 C-2.33 12.01 -2.66 11.02 -3 10 C-3.66 10 -4.32 10 -5 10 C-5.33 9.01 -5.66 8.02 -6 7 C-6.66 6.34 -7.32 5.68 -8 5 C-6.68 5 -5.36 5 -4 5 C-1.73122465 2.58119071 -1.73122465 2.58119071 0 0 Z M-1 5 C0 7 0 7 0 7 Z " fill="#1B5475" transform="translate(210,32)"/>
<path d="M0 0 C2 2 2 2 2.1875 5.4375 C2 9 2 9 1 12 C0.65657551 13.33076989 0.32380126 14.66431979 0 16 C-0.33333333 17.33333333 -0.66666667 18.66666667 -1 20 C-4.875 19.125 -4.875 19.125 -6 18 C-6.07179964 16.48071962 -6.08392007 14.95832518 -6.0625 13.4375 C-6.05347656 12.61121094 -6.04445313 11.78492187 -6.03515625 10.93359375 C-6.02355469 10.29550781 -6.01195313 9.65742187 -6 9 C-4.68 8.67 -3.36 8.34 -2 8 C-2.33 6.68 -2.66 5.36 -3 4 C-2.01 3.67 -1.02 3.34 0 3 C0 2.01 0 1.02 0 0 Z " fill="#F4D640" transform="translate(94,58)"/>
<path d="M0 0 C0.99 0 1.98 0 3 0 C3 3.96 3 7.92 3 12 C4.32 12 5.64 12 7 12 C7 10.02 7 8.04 7 6 C8.65 6.33 10.3 6.66 12 7 C11.34 7.66 10.68 8.32 10 9 C9.8453125 10.2375 9.8453125 10.2375 9.6875 11.5 C9.460625 12.325 9.23375 13.15 9 14 C6.13462272 15.54885258 3.1698627 16.29558607 0 17 C-1.07957377 13.76127868 -1.13326784 11.33971795 -1.125 7.9375 C-1.12757813 6.87402344 -1.13015625 5.81054688 -1.1328125 4.71484375 C-1 2 -1 2 0 0 Z " fill="#1179A9" transform="translate(157,36)"/>
<path d="M0 0 C1.76462683 3.08809695 2 4.23312136 2 8 C4.64 8 7.28 8 10 8 C9.66009167 13.37992836 9.31442207 17.53273547 6 22 C1.57142857 16.85714286 1.57142857 16.85714286 1 13 C4.465 14.485 4.465 14.485 8 16 C8 14.68 8 13.36 8 12 C5.36 12 2.72 12 0 12 C-0.94128806 7.64654271 -1.1898968 4.31337592 0 0 Z " fill="#6C4926" transform="translate(97,14)"/>
<path d="M0 0 C0.99 0.33 1.98 0.66 3 1 C3 1.99 3 2.98 3 4 C4.32 4 5.64 4 7 4 C7 5.32 7 6.64 7 8 C7.66 8.33 8.32 8.66 9 9 C8.42415568 11.38564077 7.77772405 13.66682784 7 16 C5.35 16 3.7 16 2 16 C1.67 16.66 1.34 17.32 1 18 C-0.34721372 10.52908757 -0.34721372 10.52908757 1.3125 8 C3 7 3 7 5 7 C5 6.34 5 5.68 5 5 C3.35 5.66 1.7 6.32 0 7 C0.33 5.35 0.66 3.7 1 2 C0.34 1.67 -0.32 1.34 -1 1 C-0.67 0.67 -0.34 0.34 0 0 Z " fill="#C39F2F" transform="translate(106,4)"/>
<path d="M0 0 C1.32 0.33 2.64 0.66 4 1 C4.33 5.62 4.66 10.24 5 15 C0.31479085 13.78184562 -3.70543612 12.30440013 -8 10 C-8 9.67 -8 9.34 -8 9 C-5.69 9.33 -3.38 9.66 -1 10 C-1.01160156 9.36191406 -1.02320313 8.72382813 -1.03515625 8.06640625 C-1.04417969 7.24011719 -1.05320313 6.41382813 -1.0625 5.5625 C-1.07410156 4.73878906 -1.08570313 3.91507813 -1.09765625 3.06640625 C-1 1 -1 1 0 0 Z " fill="#26495F" transform="translate(169,23)"/>
<path d="M0 0 C0 0.66 0 1.32 0 2 C2.64 2 5.28 2 8 2 C7.52354792 6.28806873 6.34097516 8.26647487 3 11 C2.34 11 1.68 11 1 11 C0.67 8.69 0.34 6.38 0 4 C-1.65 4.33 -3.3 4.66 -5 5 C-5.33 3.35 -5.66 1.7 -6 0 C-3.50907189 -1.24546405 -2.58919267 -0.7767578 0 0 Z " fill="#D3CDAF" transform="translate(89,22)"/>
<path d="M0 0 C1.32 0.33 2.64 0.66 4 1 C2.96905133 3.57737166 2.4891374 4.76284247 -0.0625 6 C-2.21280279 6.8295822 -2.21280279 6.8295822 -2.75 9.125 C-2.8325 9.74375 -2.915 10.3625 -3 11 C-3.99 10.67 -4.98 10.34 -6 10 C-6.33 9.34 -6.66 8.68 -7 8 C-7.33 8.99 -7.66 9.98 -8 11 C-9.65 11 -11.3 11 -13 11 C-12.01 10.67 -11.02 10.34 -10 10 C-9.7834375 8.576875 -9.7834375 8.576875 -9.5625 7.125 C-9 4 -9 4 -8 2 C-7.4225 2.185625 -6.845 2.37125 -6.25 2.5625 C-3.79307475 3.04023546 -2.35602466 2.75729364 0 2 C0 1.34 0 0.68 0 0 Z " fill="#EFD447" transform="translate(69,27)"/>
<path d="M0 0 C0.33 0 0.66 0 1 0 C1.33 1.65 1.66 3.3 2 5 C5.96 5 9.92 5 14 5 C14.33 6.32 14.66 7.64 15 9 C10.22426677 11.61895048 6.15565119 10.83119431 1 10 C-1.42857143 3.71428571 -1.42857143 3.71428571 0 0 Z " fill="#136C98" transform="translate(194,46)"/>
<path d="M0 0 C2.4375 0.375 2.4375 0.375 5 1 C5.33 1.66 5.66 2.32 6 3 C4.68 3 3.36 3 2 3 C1.67 5.31 1.34 7.62 1 10 C3.97 10.495 3.97 10.495 7 11 C5.68 12.32 4.36 13.64 3 15 C3 14.34 3 13.68 3 13 C2.01 13 1.02 13 0 13 C-0.66 15.31 -1.32 17.62 -2 20 C-2.66 20 -3.32 20 -4 20 C-4.12375 18.865625 -4.2475 17.73125 -4.375 16.5625 C-4.58125 15.386875 -4.7875 14.21125 -5 13 C-5.66 12.67 -6.32 12.34 -7 12 C-5.02 11.67 -3.04 11.34 -1 11 C-1.01160156 10.37351562 -1.02320313 9.74703125 -1.03515625 9.1015625 C-1.04417969 8.28429688 -1.05320312 7.46703125 -1.0625 6.625 C-1.07410156 5.81289063 -1.08570313 5.00078125 -1.09765625 4.1640625 C-1 2 -1 2 0 0 Z " fill="#5F3D19" transform="translate(61,16)"/>
<path d="M0 0 C0.99 0 1.98 0 3 0 C3.33 1.65 3.66 3.3 4 5 C4.33 3.68 4.66 2.36 5 1 C5.66 1.33 6.32 1.66 7 2 C7.36923077 7.53846154 7.36923077 7.53846154 5.5 9.875 C5.005 10.24625 4.51 10.6175 4 11 C3.01 10.67 2.02 10.34 1 10 C-0.99961564 9.96079185 -3.00049364 9.95556653 -5 10 C-4.25 8.0625 -4.25 8.0625 -3 6 C-0.875 5.25 -0.875 5.25 1 5 C0.67 3.35 0.34 1.7 0 0 Z " fill="#A18424" transform="translate(78,55)"/>
<path d="M0 0 C1.43655854 -0.08131463 2.8744483 -0.13933559 4.3125 -0.1875 C5.51326172 -0.23970703 5.51326172 -0.23970703 6.73828125 -0.29296875 C9 0 9 0 10.78125 1.25 C12.93096805 4.33677464 12.18010091 7.33794806 12 11 C8.04 11 4.08 11 0 11 C0 10.67 0 10.34 0 10 C3.3 9.67 6.6 9.34 10 9 C10 7.68 10 6.36 10 5 C6.7 4.01 3.4 3.02 0 2 C0 1.34 0 0.68 0 0 Z " fill="#0C7AAB" transform="translate(140,34)"/>
<path d="M0 0 C0.33 1.32 0.66 2.64 1 4 C1.99 3.67 2.98 3.34 4 3 C4 3.66 4 4.32 4 5 C3.34 5 2.68 5 2 5 C1.67 5.99 1.34 6.98 1 8 C0.01 8.33 -0.98 8.66 -2 9 C-2.66 9.66 -3.32 10.32 -4 11 C-4.99 10.34 -5.98 9.68 -7 9 C-6.39285714 3.53571429 -6.39285714 3.53571429 -4.625 1.125 C-3 0 -3 0 0 0 Z " fill="#D2B236" transform="translate(107,6)"/>
<path d="M0 0 C0.33 0.99 0.66 1.98 1 3 C-1.66974142 5.56295176 -2.90232794 5.99337817 -6.6875 6.25 C-10 6 -10 6 -11 5 C-12.34747084 4.76924918 -13.70377565 4.58846937 -15.0625 4.4375 C-16.361875 4.293125 -17.66125 4.14875 -19 4 C-17.68 3.67 -16.36 3.34 -15 3 C-15 2.34 -15 1.68 -15 1 C-13.7934375 1.309375 -13.7934375 1.309375 -12.5625 1.625 C-8.04221683 2.10081928 -4.34885474 1.16935872 0 0 Z " fill="#E2D19E" transform="translate(89,35)"/>
<path d="M0 0 C0.99 0.495 0.99 0.495 2 1 C2.4140625 3.28515625 2.4140625 3.28515625 2.625 6.0625 C2.69976562 6.98160156 2.77453125 7.90070312 2.8515625 8.84765625 C2.92503906 9.91306641 2.92503906 9.91306641 3 11 C3.66 11 4.32 11 5 11 C5 9.68 5 8.36 5 7 C9.62 7 14.24 7 19 7 C19 7.33 19 7.66 19 8 C14.71 8 10.42 8 6 8 C6.33 9.32 6.66 10.64 7 12 C6.01 12.495 6.01 12.495 5 13 C5 13.99 5 14.98 5 16 C4.01 15.34 3.02 14.68 2 14 C1.34 14.66 0.68 15.32 0 16 C0 10.72 0 5.44 0 0 Z " fill="#13374A" transform="translate(134,39)"/>
<path d="M0 0 C0.763125 0.61875 1.52625 1.2375 2.3125 1.875 C4.99625809 4.05597052 4.99625809 4.05597052 8 6 C8 7.32 8 8.64 8 10 C5.03 10 2.06 10 -1 10 C-1.125 2.25 -1.125 2.25 0 0 Z " fill="#F0D140" transform="translate(71,50)"/>
<path d="M0 0 C2.25 -0.3125 2.25 -0.3125 5 0 C5.61875 0.78375 6.2375 1.5675 6.875 2.375 C9.58495076 5.72258623 11.86813522 6.12595168 16 7 C16 7.33 16 7.66 16 8 C12.05272412 8.17942163 9.4019487 8.09350689 6 6 C5.67 7.65 5.34 9.3 5 11 C4.67 11 4.34 11 4 11 C4 9.02 4 7.04 4 5 C2.68 5 1.36 5 0 5 C0 3.35 0 1.7 0 0 Z " fill="#EFC055" transform="translate(77,50)"/>
<path d="M0 0 C0.33 0.66 0.66 1.32 1 2 C-2.63 1.67 -6.26 1.34 -10 1 C-10 1.66 -10 2.32 -10 3 C-9.01 3.33 -8.02 3.66 -7 4 C-7.99 4.495 -7.99 4.495 -9 5 C-9.33 6.32 -9.66 7.64 -10 9 C-7.03 9 -4.06 9 -1 9 C-0.67 8.01 -0.34 7.02 0 6 C0 7.32 0 8.64 0 10 C-3.63 10 -7.26 10 -11 10 C-11.33 8.35 -11.66 6.7 -12 5 C-12.66 5 -13.32 5 -14 5 C-13.08358378 2.70895944 -12.30881685 1.24942899 -10.375 -0.3125 C-6.66423538 -1.38666871 -3.78427345 -0.74444724 0 0 Z " fill="#1A5B7B" transform="translate(150,33)"/>
<path d="M0 0 C0.66 0.33 1.32 0.66 2 1 C2 1.66 2 2.32 2 3 C1.01 3 0.02 3 -1 3 C-1.02714735 5.22909871 -1.04646254 7.45829367 -1.0625 9.6875 C-1.07410156 10.92886719 -1.08570313 12.17023437 -1.09765625 13.44921875 C-1.01478673 16.46235454 -0.70839449 19.08275339 0 22 C-0.66 22 -1.32 22 -2 22 C-4.26000494 16.18855872 -5.83382872 11.2537154 -5 5 C-2.5 2 -2.5 2 0 0 Z " fill="#215473" transform="translate(158,33)"/>
<path d="M0 0 C1.62741744 0.78668518 3.25186131 1.5795241 4.875 2.375 C5.77992188 2.81585938 6.68484375 3.25671875 7.6171875 3.7109375 C10 5 10 5 12 7 C12 8.32 12 9.64 12 11 C9.75 11.25 9.75 11.25 7 11 C4.6875 9 4.6875 9 3 7 C3.99 6.67 4.98 6.34 6 6 C5.01 5.67 4.02 5.34 3 5 C3 4.34 3 3.68 3 3 C1.68 2.67 0.36 2.34 -1 2 C-0.67 1.34 -0.34 0.68 0 0 Z " fill="#C5875F" transform="translate(165,34)"/>
<path d="M0 0 C2.3431213 0.25561323 4.67843403 0.59270772 7 1 C7.33 1.66 7.66 2.32 8 3 C6.35 3 4.7 3 3 3 C4.11179163 6.33537489 5.47411298 7.63707344 8 10 C6.35 10 4.7 10 3 10 C3.08746284 11.43861294 3.19565348 12.87597508 3.3125 14.3125 C3.37050781 15.11300781 3.42851563 15.91351563 3.48828125 16.73828125 C4.08206694 19.36272334 4.95780294 20.30820672 7 22 C5.125 21.6875 5.125 21.6875 3 21 C0.48476255 17.22714383 0.81052583 14.28925116 0.9375 9.9375 C1.29479724 4.81866541 1.29479724 4.81866541 0 0 Z " fill="#5C3A1D" transform="translate(85,57)"/>
<path d="M0 0 C0.99 0.33 1.98 0.66 3 1 C3 6.61 3 12.22 3 18 C2.01 18 1.02 18 0 18 C0 12.06 0 6.12 0 0 Z " fill="#1579A9" transform="translate(131,37)"/>
<path d="M0 0 C0.99 0.66 1.98 1.32 3 2 C4.9896995 2.39013716 6.99019869 2.73202649 9 3 C8.67 4.32 8.34 5.64 8 7 C4.98968256 7.93423645 4.13349732 8.04449911 1 7 C1 6.01 1 5.02 1 4 C-0.32 4 -1.64 4 -3 4 C-3 3.01 -3 2.02 -3 1 C-2.01 0.67 -1.02 0.34 0 0 Z " fill="#59543F" transform="translate(76,24)"/>
<path d="M0 0 C0.99 0 1.98 0 3 0 C3 0.66 3 1.32 3 2 C3.66 2 4.32 2 5 2 C5 4.97 5 7.94 5 11 C3.35 11 1.7 11 0 11 C-0.33 9.35 -0.66 7.7 -1 6 C-0.01 5.67 0.98 5.34 2 5 C2 4.34 2 3.68 2 3 C1.01 2.67 0.02 2.34 -1 2 C-0.67 1.34 -0.34 0.68 0 0 Z " fill="#EDF3E5" transform="translate(86,45)"/>
<path d="M0 0 C0.33 0.99 0.66 1.98 1 3 C-0.32 3 -1.64 3 -3 3 C-3 3.99 -3 4.98 -3 6 C-4.98 6 -6.96 6 -9 6 C-9.5625 4.0625 -9.5625 4.0625 -10 2 C-8.41727399 0.41727399 -6.61965997 0.65264253 -4.4375 0.4375 C-3.19806641 0.31181641 -3.19806641 0.31181641 -1.93359375 0.18359375 C-0.97646484 0.09271484 -0.97646484 0.09271484 0 0 Z " fill="#18658B" transform="translate(213,62)"/>
<path d="M0 0 C2.95662966 0.22743305 4.55033688 0.61235938 6.8125 2.5625 C7.204375 3.036875 7.59625 3.51125 8 4 C7.34 4 6.68 4 6 4 C6 4.66 6 5.32 6 6 C3.69 6 1.38 6 -1 6 C-1.625 4.125 -1.625 4.125 -2 2 C-1.34 1.34 -0.68 0.68 0 0 Z " fill="#F8EEA0" transform="translate(68,32)"/>
<path d="M0 0 C1.32 0.33 2.64 0.66 4 1 C3.01 1 2.02 1 1 1 C1 1.99 1 2.98 1 4 C2.98 4 4.96 4 7 4 C6.34 6.31 5.68 8.62 5 11 C1.125 10.125 1.125 10.125 0 9 C-0.07179964 7.48071962 -0.08392007 5.95832518 -0.0625 4.4375 C-0.05347656 3.61121094 -0.04445313 2.78492187 -0.03515625 1.93359375 C-0.02355469 1.29550781 -0.01195313 0.65742187 0 0 Z " fill="#C9A93A" transform="translate(88,67)"/>
<path d="M0 0 C0.66 0.33 1.32 0.66 2 1 C2 3.31 2 5.62 2 8 C3.65 7.67 5.3 7.34 7 7 C6.01 7.33 5.02 7.66 4 8 C4 10.31 4 12.62 4 15 C2.68 15 1.36 15 0 15 C-0.19390729 12.68802845 -0.37996367 10.3753971 -0.5625 8.0625 C-0.71912109 6.13083984 -0.71912109 6.13083984 -0.87890625 4.16015625 C-0.91886719 3.11730469 -0.95882812 2.07445312 -1 1 C-0.67 0.67 -0.34 0.34 0 0 Z " fill="#AF8474" transform="translate(160,33)"/>
<path d="M0 0 C2.0625 0.4375 2.0625 0.4375 4 1 C3.67 3.31 3.34 5.62 3 8 C1.0625 8.5625 1.0625 8.5625 -1 9 C-1.33 8.67 -1.66 8.34 -2 8 C-1.28 1.28 -1.28 1.28 0 0 Z " fill="#EDD878" transform="translate(63,18)"/>
<path d="M0 0 C5.40432346 -0.48038431 5.40432346 -0.48038431 7.9375 1.5625 C9.42134164 4.96660729 8.75421541 7.43461808 8 11 C7.67 11 7.34 11 7 11 C7 8.36 7 5.72 7 3 C6.34 3 5.68 3 5 3 C5 2.34 5 1.68 5 1 C4.01 1 3.02 1 2 1 C2 1.66 2 2.32 2 3 C2.66 3.33 3.32 3.66 4 4 C3.67 4.66 3.34 5.32 3 6 C1.02 5.34 -0.96 4.68 -3 4 C-2.67 3.34 -2.34 2.68 -2 2 C-1.34 2 -0.68 2 0 2 C0 1.34 0 0.68 0 0 Z " fill="#F2F2C5" transform="translate(84,44)"/>
<path d="M0 0 C0.625 1.875 0.625 1.875 1 4 C0.34 4.66 -0.32 5.32 -1 6 C-3.625 5.625 -3.625 5.625 -6 5 C-6 3.35 -6 1.7 -6 0 C-3.50907189 -1.24546405 -2.58919267 -0.7767578 0 0 Z " fill="#233947" transform="translate(229,25)"/>
<path d="M0 0 C0.99 0.33 1.98 0.66 3 1 C3 1.99 3 2.98 3 4 C4.32 4 5.64 4 7 4 C7 5.32 7 6.64 7 8 C7.66 8.33 8.32 8.66 9 9 C8.67 9.99 8.34 10.98 8 12 C8 11.34 8 10.68 8 10 C6.35 10 4.7 10 3 10 C3 9.01 3 8.02 3 7 C3.66 7 4.32 7 5 7 C5 6.34 5 5.68 5 5 C3.35 5.66 1.7 6.32 0 7 C0.33 5.35 0.66 3.7 1 2 C0.34 1.67 -0.32 1.34 -1 1 C-0.67 0.67 -0.34 0.34 0 0 Z " fill="#775E25" transform="translate(106,4)"/>
<path d="M0 0 C0.33 0 0.66 0 1 0 C1 1.65 1 3.3 1 5 C0.08476562 5.02578125 -0.83046875 5.0515625 -1.7734375 5.078125 C-3.55621094 5.16320313 -3.55621094 5.16320313 -5.375 5.25 C-6.55835938 5.29640625 -7.74171875 5.3428125 -8.9609375 5.390625 C-12.11291753 5.65648799 -12.11291753 5.65648799 -13.4140625 8.046875 C-13.60742188 8.69140625 -13.80078125 9.3359375 -14 10 C-14 7.36 -14 4.72 -14 2 C-13.67 2.66 -13.34 3.32 -13 4 C-8.71 3.34 -4.42 2.68 0 2 C0 1.34 0 0.68 0 0 Z " fill="#0A79AC" transform="translate(207,40)"/>
<path d="M0 0 C1.125 3.75 1.125 3.75 0 6 C-3.60857327 7.19882132 -7.20265262 7.83795104 -11 8 C-14.1875 6.25 -14.1875 6.25 -16 4 C-16 3.34 -16 2.68 -16 2 C-15.46375 2.309375 -14.9275 2.61875 -14.375 2.9375 C-10.78067898 4.54548572 -7.57180235 5.52393412 -3.75 4.25 C-1.70982835 2.94895128 -1.70982835 2.94895128 0 0 Z " fill="#614A4F" transform="translate(89,30)"/>
<path d="M0 0 C0.39832031 0.47050781 0.79664063 0.94101562 1.20703125 1.42578125 C3.3617393 3.31760553 4.89091882 3.66060789 7.6875 4.1875 C8.49574219 4.34605469 9.30398437 4.50460938 10.13671875 4.66796875 C10.75160156 4.77753906 11.36648437 4.88710938 12 5 C11.67 5.99 11.34 6.98 11 8 C9.824375 7.505 9.824375 7.505 8.625 7 C4.00638131 5.72589829 -0.24249356 5.83076064 -5 6 C-5 5.34 -5 4.68 -5 4 C-3.35 4 -1.7 4 0 4 C0 2.68 0 1.36 0 0 Z " fill="#63491E" transform="translate(61,34)"/>
<path d="M0 0 C0.99 0 1.98 0 3 0 C3 3.96 3 7.92 3 12 C2.01 11.67 1.02 11.34 0 11 C0 7.37 0 3.74 0 0 Z " fill="#1A79AA" transform="translate(169,25)"/>
<path d="M0 0 C1.32 0 2.64 0 4 0 C4.36237263 1.62318979 4.71465157 3.2486358 5.0625 4.875 C5.25972656 5.77992187 5.45695312 6.68484375 5.66015625 7.6171875 C6 10 6 10 5 12 C4.34 12 3.68 12 3 12 C2 8 1 4 0 0 Z " fill="#EECF3D" transform="translate(96,10)"/>
<path d="M0 0 C0.66 0 1.32 0 2 0 C2 1.98 2 3.96 2 6 C3.32 6.33 4.64 6.66 6 7 C4.35 7 2.7 7 1 7 C0.87530901 12.57830016 0.87530901 12.57830016 2 18 C1.01 17.34 0.02 16.68 -1 16 C-1.328125 13.06640625 -1.328125 13.06640625 -1.25 9.5625 C-1.23453125 8.40878906 -1.2190625 7.25507812 -1.203125 6.06640625 C-1 3 -1 3 0 0 Z " fill="#1A739F" transform="translate(193,37)"/>
<path d="M0 0 C1.6260287 0.06000106 3.25101549 0.1487885 4.875 0.25 C6.23238281 0.31960937 6.23238281 0.31960937 7.6171875 0.390625 C10 1 10 1 11.3203125 3.046875 C11.54460937 3.69140625 11.76890625 4.3359375 12 5 C10.02 5 8.04 5 6 5 C6 4.34 6 3.68 6 3 C2.95613276 2.91773332 0.92824652 3.02391783 -2 4 C-1.34 2.68 -0.68 1.36 0 0 Z " fill="#6D5419" transform="translate(84,16)"/>
<path d="M0 0 C0 0.99 0 1.98 0 3 C-1 4 -1 4 -3.94140625 4.09765625 C-5.73384766 4.08025391 -5.73384766 4.08025391 -7.5625 4.0625 C-9.35880859 4.04896484 -9.35880859 4.04896484 -11.19140625 4.03515625 C-12.11824219 4.02355469 -13.04507813 4.01195312 -14 4 C-14.33 4.99 -14.66 5.98 -15 7 C-16 6 -16 6 -16.0625 3.4375 C-16.041875 2.633125 -16.02125 1.82875 -16 1 C-14.33388095 0.957279 -12.66617115 0.95936168 -11 1 C-10.67 1.33 -10.34 1.66 -10 2 C-4.67326964 2.33856828 -4.67326964 2.33856828 0 0 Z " fill="#B4954B" transform="translate(89,38)"/>
<path d="M0 0 C0.6875 1.6875 0.6875 1.6875 1 4 C-0.4375 6.75 -0.4375 6.75 -2 9 C-3.32 8.67 -4.64 8.34 -6 8 C-4.52307692 2.33846154 -4.52307692 2.33846154 -1.875 0.625 C-0.946875 0.315625 -0.946875 0.315625 0 0 Z " fill="#EBEDDC" transform="translate(89,25)"/>
<path d="M0 0 C0.66 0 1.32 0 2 0 C3.85776765 3.13498292 4.20140476 5.37471432 4 9 C1.125 8.6875 1.125 8.6875 -2 8 C-2.66 7.01 -3.32 6.02 -4 5 C-2.35 5 -0.7 5 1 5 C0.67 3.35 0.34 1.7 0 0 Z " fill="#467FA2" transform="translate(176,40)"/>
<path d="M0 0 C0.80566406 0.00257812 1.61132812 0.00515625 2.44140625 0.0078125 C3.64603516 0.00394531 3.64603516 0.00394531 4.875 0 C7.00390625 0.1328125 7.00390625 0.1328125 9.00390625 1.1328125 C8.67390625 2.4528125 8.34390625 3.7728125 8.00390625 5.1328125 C8.00390625 4.4728125 8.00390625 3.8128125 8.00390625 3.1328125 C5.02539062 3.23046875 5.02539062 3.23046875 2.046875 3.328125 C0.00390625 3.1328125 0.00390625 3.1328125 -2.99609375 1.1328125 C-1.99609375 0.1328125 -1.99609375 0.1328125 0 0 Z " fill="#1978AA" transform="translate(197.99609375,33.8671875)"/>
<path d="M0 0 C2.625 1.1875 2.625 1.1875 5 3 C5 4.32 5 5.64 5 7 C1.75728494 6.4409112 0.06942576 5.5867822 -2 3 C-2 2.34 -2 1.68 -2 1 C-1.34 0.67 -0.68 0.34 0 0 Z " fill="#E6C03E" transform="translate(97,30)"/>
<path d="M0 0 C1.32 0 2.64 0 4 0 C3.50168276 3.68754757 2.89932357 5.60490662 0 8 C-0.66 7.67 -1.32 7.34 -2 7 C-1.34 4.69 -0.68 2.38 0 0 Z " fill="#ECF3EC" transform="translate(92,25)"/>
<path d="M0 0 C1.98 0 3.96 0 6 0 C6 2.64 6 5.28 6 8 C5.34 8 4.68 8 4 8 C4 6.35 4 4.7 4 3 C2.68 3.33 1.36 3.66 0 4 C0 2.68 0 1.36 0 0 Z " fill="#8A5C38" transform="translate(90,1)"/>
<path d="M0 0 C0.99 0 1.98 0 3 0 C3 1.32 3 2.64 3 4 C3.66 4 4.32 4 5 4 C5.33 7.3 5.66 10.6 6 14 C2 11 2 11 1.42578125 8.80859375 C1.38839844 8.02613281 1.35101563 7.24367188 1.3125 6.4375 C1.15741912 3.09123258 1.15741912 3.09123258 0 0 Z " fill="#377EA9" transform="translate(180,42)"/>
<path d="M0 0 C2.475 0.495 2.475 0.495 5 1 C5.625 2.875 5.625 2.875 6 5 C5.34 5.66 4.68 6.32 4 7 C3.34 6.67 2.68 6.34 2 6 C2 5.34 2 4.68 2 4 C1.34 4 0.68 4 0 4 C0 2.68 0 1.36 0 0 Z " fill="#CAE1F2" transform="translate(168,45)"/>
<path d="M0 0 C7.425 0.99 7.425 0.99 15 2 C15 2.33 15 2.66 15 3 C9.16524985 3.85330338 4.55139349 4.48351814 -1 2 C-0.67 1.34 -0.34 0.68 0 0 Z " fill="#F6D347" transform="translate(75,41)"/>
<path d="M0 0 C0.99 0.33 1.98 0.66 3 1 C2.67 2.65 2.34 4.3 2 6 C0.68 6.33 -0.64 6.66 -2 7 C-2.125 4.625 -2.125 4.625 -2 2 C-1.34 1.34 -0.68 0.68 0 0 Z " fill="#18658B" transform="translate(226,32)"/>
<path d="M0 0 C2.97 0 5.94 0 9 0 C8.67 0.99 8.34 1.98 8 3 C8.66 3.33 9.32 3.66 10 4 C8 5 8 5 6.0546875 4.44140625 C5.33539063 4.15136719 4.61609375 3.86132812 3.875 3.5625 C3.15054688 3.27503906 2.42609375 2.98757812 1.6796875 2.69140625 C0.84824219 2.34916016 0.84824219 2.34916016 0 2 C0 1.34 0 0.68 0 0 Z " fill="#196C9A" transform="translate(140,34)"/>
<path d="M0 0 C2.31 0 4.62 0 7 0 C6.67 1.32 6.34 2.64 6 4 C4.02 4.33 2.04 4.66 0 5 C0 3.33333333 0 1.66666667 0 0 Z " fill="#AD902C" transform="translate(51,40)"/>
<path d="M0 0 C1.32 0 2.64 0 4 0 C4 1.32 4 2.64 4 4 C3.01 4 2.02 4 1 4 C1.33 5.98 1.66 7.96 2 10 C1.34 10 0.68 10 0 10 C0 6.7 0 3.4 0 0 Z " fill="#1279AB" transform="translate(217,49)"/>
<path d="M0 0 C0.66 0 1.32 0 2 0 C2.25 5.625 2.25 5.625 0 9 C-2.625 9.1875 -2.625 9.1875 -5 9 C-4.01 8.67 -3.02 8.34 -2 8 C-1.7834375 6.576875 -1.7834375 6.576875 -1.5625 5.125 C-1 2 -1 2 0 0 Z " fill="#EFCC4F" transform="translate(61,29)"/>
<path d="M0 0 C0 1.32 0 2.64 0 4 C-3.76624671 5.25541557 -5.37188934 4.37061958 -9 3 C-9 2.34 -9 1.68 -9 1 C-2.25 -1.125 -2.25 -1.125 0 0 Z " fill="#F3D839" transform="translate(84,17)"/>
<path d="M0 0 C0 1.98 0 3.96 0 6 C-0.99 6.33 -1.98 6.66 -3 7 C-3.66 6.67 -4.32 6.34 -5 6 C-4.625 3.5625 -4.625 3.5625 -4 1 C-2 0 -2 0 0 0 Z M-3 3 C-2 5 -2 5 -2 5 Z " fill="#674030" transform="translate(195,60)"/>
<path d="M0 0 C0.33 0.99 0.66 1.98 1 3 C-1.71182212 5.60334924 -2.89133813 5.99456691 -6.75 6.1875 C-7.8225 6.125625 -8.895 6.06375 -10 6 C-10 5.34 -10 4.68 -10 4 C-8.906875 3.896875 -7.81375 3.79375 -6.6875 3.6875 C-3.14440371 3.02692273 -2.06756277 2.7972908 0 0 Z " fill="#ECECD6" transform="translate(89,35)"/>
<path d="M0 0 C2.4375 0.375 2.4375 0.375 5 1 C5.33 1.66 5.66 2.32 6 3 C4.68 3 3.36 3 2 3 C1.87625 4.134375 1.7525 5.26875 1.625 6.4375 C1.41875 7.613125 1.2125 8.78875 1 10 C0.01 10.495 0.01 10.495 -1 11 C-1.0270043 9.54176788 -1.04639787 8.08339325 -1.0625 6.625 C-1.07410156 5.81289063 -1.08570313 5.00078125 -1.09765625 4.1640625 C-1 2 -1 2 0 0 Z " fill="#8D7829" transform="translate(61,16)"/>
<path d="M0 0 C1.65 0 3.3 0 5 0 C5 1.98 5 3.96 5 6 C4.34 5.67 3.68 5.34 3 5 C2.01 5.33 1.02 5.66 0 6 C0 4.02 0 2.04 0 0 Z " fill="#80513D" transform="translate(106,60)"/>
<path d="M0 0 C0.99 0 1.98 0 3 0 C3.99 2.97 4.98 5.94 6 9 C1.3125 5.484375 1.3125 5.484375 0 4 C0 2.68 0 1.36 0 0 Z " fill="#13668C" transform="translate(211,34)"/>
<path d="M0 0 C0 1.98 0 3.96 0 6 C-0.99 6.33 -1.98 6.66 -3 7 C-3.66 5.68 -4.32 4.36 -5 3 C-2.25 0 -2.25 0 0 0 Z M-3 3 C-2 5 -2 5 -2 5 Z " fill="#724738" transform="translate(188,60)"/>
<path d="M0 0 C1.65 0 3.3 0 5 0 C5.66 1.32 6.32 2.64 7 4 C4.69 4 2.38 4 0 4 C0 2.68 0 1.36 0 0 Z " fill="#F6D64B" transform="translate(77,50)"/>
<path d="M0 0 C1.98 0.495 1.98 0.495 4 1 C4 2.32 4 3.64 4 5 C3.01 5.33 2.02 5.66 1 6 C-0.0625 4.125 -0.0625 4.125 -1 2 C-0.67 1.34 -0.34 0.68 0 0 Z " fill="#6E4223" transform="translate(134,61)"/>
<path d="M0 0 C0.99 0 1.98 0 3 0 C3.33 1.65 3.66 3.3 4 5 C3.01 5.66 2.02 6.32 1 7 C0 6 0 6 -0.0625 2.9375 C-0.041875 1.968125 -0.02125 0.99875 0 0 Z " fill="#C6A52F" transform="translate(95,50)"/>
<path d="M0 0 C2.97 1.98 2.97 1.98 6 4 C5.34 5.65 4.68 7.3 4 9 C1.49701566 6.06171403 0.53069061 3.82097239 0 0 Z " fill="#5A3719" transform="translate(95,33)"/>
<path d="M0 0 C1.32 0.33 2.64 0.66 4 1 C2.515 3.475 2.515 3.475 1 6 C3.97 6 6.94 6 10 6 C10 6.33 10 6.66 10 7 C6.7 7 3.4 7 0 7 C0 4.69 0 2.38 0 0 Z " fill="#1A5F84" transform="translate(195,36)"/>
<path d="M0 0 C0 0.33 0 0.66 0 1 C-1.65 1 -3.3 1 -5 1 C-4.67 2.65 -4.34 4.3 -4 6 C-4.99 6 -5.98 6 -7 6 C-7 4.68 -7 3.36 -7 2 C-8.32 1.67 -9.64 1.34 -11 1 C-7.32589215 -0.17571451 -3.83070817 -0.07366746 0 0 Z " fill="#4F2F1B" transform="translate(95,0)"/>
<path d="M0 0 C1.32 0 2.64 0 4 0 C4 1.65 4 3.3 4 5 C3.01 5.33 2.02 5.66 1 6 C0 5 0 5 -0.0625 2.4375 C-0.041875 1.633125 -0.02125 0.82875 0 0 Z " fill="#744625" transform="translate(140,61)"/>
<path d="M0 0 C0.33 0 0.66 0 1 0 C1 2.64 1 5.28 1 8 C-0.32 7.67 -1.64 7.34 -3 7 C-2.67 5.68 -2.34 4.36 -2 3 C-1.34 3 -0.68 3 0 3 C0 2.01 0 1.02 0 0 Z " fill="#F8DB31" transform="translate(94,58)"/>
<path d="M0 0 C0.99 0.33 1.98 0.66 3 1 C3 3.31 3 5.62 3 8 C2.34 8 1.68 8 1 8 C1 8.66 1 9.32 1 10 C0.34 9.67 -0.32 9.34 -1 9 C-0.67 6.03 -0.34 3.06 0 0 Z " fill="#F3E064" transform="translate(92,46)"/>
<path d="M0 0 C0.33 1.32 0.66 2.64 1 4 C-3.43076923 7.07692308 -3.43076923 7.07692308 -6.3125 6.6875 C-6.869375 6.460625 -7.42625 6.23375 -8 6 C-7.01 6 -6.02 6 -5 6 C-5 5.01 -5 4.02 -5 3 C-3.35 3 -1.7 3 0 3 C0 2.01 0 1.02 0 0 Z " fill="#BAA32F" transform="translate(84,11)"/>
<path d="M0 0 C2.31 0 4.62 0 7 0 C6.34 1.32 5.68 2.64 5 4 C3.68 4 2.36 4 1 4 C0.67 2.68 0.34 1.36 0 0 Z " fill="#5A3619" transform="translate(69,59)"/>
<path d="M0 0 C3.63 0 7.26 0 11 0 C11.33 1.32 11.66 2.64 12 4 C11.34 4 10.68 4 10 4 C10 3.34 10 2.68 10 2 C6.7 2 3.4 2 0 2 C0 1.34 0 0.68 0 0 Z " fill="#1D5F7D" transform="translate(141,51)"/>
<path d="M0 0 C0 0.66 0 1.32 0 2 C-6.0546875 2.9765625 -6.0546875 2.9765625 -8 3 C-8.66 2.34 -9.32 1.68 -10 1 C-6.61981469 -0.04005702 -3.5219721 -0.08004482 0 0 Z " fill="#137AA5" transform="translate(130,34)"/>
<path d="M0 0 C2.475 0.495 2.475 0.495 5 1 C5 2.32 5 3.64 5 5 C3.68 5 2.36 5 1 5 C0.67 3.35 0.34 1.7 0 0 Z " fill="#91A1A1" transform="translate(83,22)"/>
<path d="M0 0 C0.66 0.33 1.32 0.66 2 1 C1.8125 2.875 1.8125 2.875 1 5 C-1.5625 6.25 -1.5625 6.25 -4 7 C-4 5.68 -4 4.36 -4 3 C-2 1.25 -2 1.25 0 0 Z " fill="#68541C" transform="translate(74,17)"/>
<path d="M0 0 C1.66666667 0 3.33333333 0 5 0 C4.39816251 2.02045442 3.72693904 4.02111039 3 6 C2.01 6.495 2.01 6.495 1 7 C0.67 4.69 0.34 2.38 0 0 Z " fill="#614230" transform="translate(197,61)"/>
<path d="M0 0 C1.98 0.99 1.98 0.99 4 2 C3.67 3.65 3.34 5.3 3 7 C2.01 6.67 1.02 6.34 0 6 C0 4.02 0 2.04 0 0 Z M1 3 C2 5 2 5 2 5 Z " fill="#7F4D3B" transform="translate(170,60)"/>
<path d="M0 0 C1.65 1.32 3.3 2.64 5 4 C4.34 5.65 3.68 7.3 3 9 C1.35173889 6.03312999 0.55728913 3.34373475 0 0 Z " fill="#1372A2" transform="translate(213,39)"/>
<path d="M0 0 C0.99 0.99 1.98 1.98 3 3 C2.34 4.32 1.68 5.64 1 7 C1 6.01 1 5.02 1 4 C-0.32 4 -1.64 4 -3 4 C-3 3.01 -3 2.02 -3 1 C-2.01 0.67 -1.02 0.34 0 0 Z " fill="#939085" transform="translate(76,24)"/>
<path d="M0 0 C1.32 0 2.64 0 4 0 C3.125 4.75 3.125 4.75 2 7 C1.34 6.67 0.68 6.34 0 6 C0 4.02 0 2.04 0 0 Z " fill="#6A412F" transform="translate(114,61)"/>
<path d="M0 0 C0 0.99 0 1.98 0 3 C-0.66 3 -1.32 3 -2 3 C-2 2.34 -2 1.68 -2 1 C-4.64 1 -7.28 1 -10 1 C-10 0.67 -10 0.34 -10 0 C-6.30458414 -0.95024979 -3.69541586 -0.95024979 0 0 Z " fill="#17526D" transform="translate(209,52)"/>
<path d="M0 0 C1.25541557 3.76624671 0.37061958 5.37188934 -1 9 C-1.66 9 -2.32 9 -3 9 C-2.4140625 2.84765625 -2.4140625 2.84765625 -2 1 C-1.34 0.67 -0.68 0.34 0 0 Z " fill="#1079A9" transform="translate(224,40)"/>
<path d="M0 0 C-0.33 0.66 -0.66 1.32 -1 2 C-1.66 1.67 -2.32 1.34 -3 1 C-3.33 1.99 -3.66 2.98 -4 4 C-5.32 2.68 -6.64 1.36 -8 0 C-4.94736336 -0.98120464 -3.05263664 -0.98120464 0 0 Z " fill="#1B6286" transform="translate(134,36)"/>
<path d="M0 0 C1.32 0.33 2.64 0.66 4 1 C4 1.66 4 2.32 4 3 C0.625 3.625 0.625 3.625 -3 4 C-3.66 3.34 -4.32 2.68 -5 2 C-3.35 2 -1.7 2 0 2 C0 1.34 0 0.68 0 0 Z " fill="#CFC9BA" transform="translate(82,32)"/>
<path d="M0 0 C1.98 0 3.96 0 6 0 C6.33 0.99 6.66 1.98 7 3 C5.02 3 3.04 3 1 3 C0.67 2.01 0.34 1.02 0 0 Z " fill="#F3D84E" transform="translate(90,21)"/>
<path d="M0 0 C0.99 0.33 1.98 0.66 3 1 C3 1.99 3 2.98 3 4 C3.66 4.33 4.32 4.66 5 5 C3.35 5.66 1.7 6.32 0 7 C0.33 5.35 0.66 3.7 1 2 C0.34 1.67 -0.32 1.34 -1 1 C-0.67 0.67 -0.34 0.34 0 0 Z " fill="#70551A" transform="translate(106,4)"/>
<path d="M0 0 C0.33 0 0.66 0 1 0 C1.05391993 1.79133978 1.09275571 3.58313899 1.125 5.375 C1.14820312 6.37273437 1.17140625 7.37046875 1.1953125 8.3984375 C1 11 1 11 -1 13 C-1 9.98146205 -0.85049285 7.22918921 -0.5 4.25 C-0.4071875 3.45078125 -0.314375 2.6515625 -0.21875 1.828125 C-0.1465625 1.22484375 -0.074375 0.6215625 0 0 Z " fill="#423314" transform="translate(96,58)"/>
<path d="M0 0 C1.32 0 2.64 0 4 0 C4 1.65 4 3.3 4 5 C3.01 5.33 2.02 5.66 1 6 C0 5 0 5 -0.0625 2.4375 C-0.041875 1.633125 -0.02125 0.82875 0 0 Z " fill="#654940" transform="translate(177,61)"/>
<path d="M0 0 C1.98 0.99 1.98 0.99 4 2 C4 3.32 4 4.64 4 6 C2.68 6 1.36 6 0 6 C0 4.02 0 2.04 0 0 Z " fill="#6A5048" transform="translate(157,60)"/>
<path d="M0 0 C1.98 0.99 1.98 0.99 4 2 C4 3.32 4 4.64 4 6 C2.68 6 1.36 6 0 6 C0 4.02 0 2.04 0 0 Z " fill="#74534D" transform="translate(127,60)"/>
<path d="M0 0 C-2 2 -2 2 -5.125 2.125 C-6.548125 2.063125 -6.548125 2.063125 -8 2 C-8 1.34 -8 0.68 -8 0 C-4.94736336 -0.98120464 -3.05263664 -0.98120464 0 0 Z " fill="#D3BEC4" transform="translate(88,37)"/>
<path d="M0 0 C2.95409701 1.37154504 5.44008376 2.98863724 8 5 C3.77471908 5 2.95481492 4.74375671 0 2 C0 1.34 0 0.68 0 0 Z " fill="#65513F" transform="translate(73,32)"/>
<path d="M0 0 C0.66 0.33 1.32 0.66 2 1 C2 2.98 2 4.96 2 7 C1.01 6.67 0.02 6.34 -1 6 C-1 5.34 -1 4.68 -1 4 C-1.66 3.67 -2.32 3.34 -3 3 C-2.01 2.01 -1.02 1.02 0 0 Z " fill="#5C410C" transform="translate(52,29)"/>
<path d="M0 0 C2.76223278 2.76223278 2.57856291 5.20706617 3 9 C2.01 8.67 1.02 8.34 0 8 C0 5.36 0 2.72 0 0 Z " fill="#C49B3A" transform="translate(63,29)"/>
<path d="M0 0 C1.98 0.495 1.98 0.495 4 1 C3.67 3.31 3.34 5.62 3 8 C2.67 8 2.34 8 2 8 C2 6.35 2 4.7 2 3 C1.01 3 0.02 3 -1 3 C-0.67 2.01 -0.34 1.02 0 0 Z " fill="#EBC34C" transform="translate(63,18)"/>
<path d="M0 0 C2.86724686 0.57344937 3.8614515 0.8614515 6 3 C4.68 3 3.36 3 2 3 C2 3.99 2 4.98 2 6 C1.34 5.67 0.68 5.34 0 5 C0 3.35 0 1.7 0 0 Z " fill="#776037" transform="translate(77,11)"/>
<path d="M0 0 C0.99 0.33 1.98 0.66 3 1 C3 2.65 3 4.3 3 6 C2.01 6 1.02 6 0 6 C0 4.02 0 2.04 0 0 Z " fill="#654236" transform="translate(151,60)"/>
<path d="M0 0 C0.66 0 1.32 0 2 0 C2 1.98 2 3.96 2 6 C1.34 6 0.68 6 0 6 C0 4.02 0 2.04 0 0 Z " fill="#3C3938" transform="translate(147,60)"/>
</svg>
